<svg width="32" height="50" viewBox="0 0 32 50" fill="none" xmlns="http://www.w3.org/2000/svg">
<path fill-rule="evenodd" clip-rule="evenodd" d="M16.0005 42.0578C15.4637 42.0578 14.939 41.8986 14.4927 41.6004C14.0464 41.3022 13.6986 40.8783 13.4932 40.3824C13.2878 39.8865 13.2341 39.3408 13.3388 38.8144C13.4435 38.2879 13.7019 37.8044 14.0815 37.4248C14.461 37.0453 14.9446 36.7868 15.471 36.682C15.9975 36.5773 16.5432 36.631 17.0391 36.8364C17.535 37.0418 17.9588 37.3896 18.2571 37.8359C18.5553 38.2822 18.7145 38.8069 18.7145 39.3437C18.7139 40.0633 18.4277 40.7532 17.9189 41.262C17.41 41.7709 16.7201 42.0571 16.0005 42.0578ZM16.0005 35.0674C15.1547 35.0674 14.3278 35.3182 13.6246 35.7882C12.9213 36.2581 12.3732 36.9261 12.0495 37.7075C11.7258 38.489 11.6412 39.3489 11.8062 40.1784C11.9713 41.008 12.3786 41.77 12.9767 42.3681C13.5749 42.9661 14.3369 43.3734 15.1665 43.5384C15.9961 43.7033 16.856 43.6186 17.6374 43.2949C18.4188 42.9711 19.0867 42.423 19.5566 41.7197C20.0264 41.0163 20.2772 40.1895 20.2771 39.3437C20.2758 38.2099 19.8248 37.1229 19.023 36.3212C18.2213 35.5195 17.1343 35.0686 16.0005 35.0674ZM16.0005 45.4837C17.2148 45.4837 18.4019 45.1235 19.4115 44.4489C20.4212 43.7742 21.2081 42.8153 21.6728 41.6934C22.1375 40.5715 22.2591 39.337 22.0222 38.146C21.7852 36.955 21.2005 35.861 20.3418 35.0023C19.4832 34.1437 18.3892 33.5589 17.1982 33.322C16.0072 33.0851 14.7727 33.2066 13.6508 33.6713C12.5289 34.136 11.5699 34.923 10.8953 35.9326C10.2206 36.9423 9.86049 38.1293 9.86045 39.3437C9.86223 40.9715 10.5097 42.5323 11.6608 43.6833C12.8119 44.8344 14.3726 45.4819 16.0005 45.4837ZM16.0005 31.642C14.4772 31.6421 12.9881 32.0938 11.7216 32.9402C10.455 33.7865 9.46788 34.9894 8.88499 36.3968C8.3021 37.8042 8.14964 39.3528 8.44688 40.8468C8.74411 42.3408 9.47771 43.7132 10.5549 44.7903C11.6321 45.8674 13.0044 46.6008 14.4985 46.898C15.9925 47.1951 17.5411 47.0425 18.9485 46.4595C20.3558 45.8765 21.5586 44.8893 22.4049 43.6227C23.2511 42.3561 23.7028 40.867 23.7027 39.3437C23.7003 37.3017 22.888 35.3441 21.4441 33.9002C20.0001 32.4564 18.0424 31.6443 16.0005 31.642ZM25.3543 28.7178H6.64658V5.83789H25.3544V28.7178H25.3543ZM26.1355 4.27539H5.86523C5.65803 4.27539 5.45932 4.3577 5.31281 4.50421C5.1663 4.65073 5.08398 4.84944 5.08398 5.05664V29.499C5.08398 29.7062 5.1663 29.9049 5.31281 30.0515C5.45932 30.198 5.65803 30.2803 5.86523 30.2803H26.1357C26.3429 30.2803 26.5417 30.198 26.6882 30.0515C26.8347 29.9049 26.917 29.7062 26.917 29.499V5.05664C26.917 4.84944 26.8347 4.65073 26.6882 4.50421C26.5417 4.3577 26.3429 4.27539 26.1357 4.27539H26.1355ZM2.37109 1.5625V48.4375H29.6299V1.5625H2.37109ZM0.808594 0.78125V49.2188C0.808594 49.4259 0.890904 49.6247 1.03742 49.7712C1.18393 49.9177 1.38264 50 1.58984 50H30.4109C30.6181 50 30.8168 49.9177 30.9634 49.7712C31.1099 49.6247 31.1922 49.4259 31.1922 49.2188V0.78125C31.1922 0.57405 31.1099 0.375336 30.9634 0.228823C30.8168 0.08231 30.6181 0 30.4109 0L1.59004 0C1.38284 0 1.18412 0.08231 1.03761 0.228823C0.891099 0.375336 0.808789 0.57405 0.808789 0.78125H0.808594ZM9.54199 22.8771C9.34668 23.0949 9.28711 23.2792 9.31445 23.3653C9.3418 23.4515 9.49658 23.5694 9.78144 23.6357C10.1861 23.7307 10.7108 23.6925 11.2208 23.5312C11.731 23.3714 12.1824 23.101 12.4596 22.7909C12.6549 22.5735 12.7144 22.3888 12.6872 22.3018C12.6601 22.2147 12.5049 22.0985 12.2201 22.0322C12.0625 21.9969 11.9014 21.9796 11.7399 21.9807C11.4142 21.9838 11.0908 22.0361 10.7807 22.1358C10.2705 22.2971 9.81904 22.5666 9.54199 22.8771ZM21.5211 11.1055L14.2563 13.0527V15.6093L21.5211 13.6631V11.1055ZM21.2867 22.7909C21.482 22.5735 21.5415 22.3888 21.5143 22.3018C21.4645 22.1446 21.0999 21.9815 20.5628 21.9815C20.2385 21.9843 19.9165 22.0363 19.6078 22.1358C19.0977 22.2971 18.6462 22.5666 18.369 22.8771C18.1737 23.0949 18.1143 23.2792 18.1415 23.3653C18.1688 23.4515 18.3237 23.5694 18.6086 23.6357C19.0133 23.7307 19.538 23.6925 20.0479 23.5312C20.558 23.3714 21.0096 23.101 21.2867 22.7909ZM9.42529 25.1573C10.1051 25.3167 10.9097 25.2674 11.6909 25.0214C12.4722 24.7754 13.1588 24.3525 13.6245 23.8329C14.0332 23.376 14.2506 22.8614 14.2558 22.3625C14.2563 22.3518 14.2566 22.341 14.2565 22.3303V17.2266L21.5214 15.2803V20.5469C20.8385 20.3553 19.9979 20.3751 19.1386 20.6455C18.3573 20.8924 17.6708 21.3144 17.205 21.8349C16.6483 22.4567 16.4471 23.1864 16.6519 23.8359C16.8566 24.4854 17.4401 24.9669 18.2528 25.1571C18.5275 25.2197 18.8085 25.2504 19.0902 25.2488C19.5751 25.246 20.0567 25.1693 20.5185 25.0212C21.2997 24.7753 21.9862 24.3523 22.452 23.8327C22.8608 23.3748 23.078 22.8603 23.0833 22.3609C23.0833 22.3512 23.084 22.3406 23.084 22.3301V10.0879C23.084 9.96801 23.0565 9.84973 23.0035 9.74219C22.9505 9.63466 22.8735 9.54076 22.7784 9.46777C22.6833 9.39478 22.5727 9.34465 22.4551 9.32126C22.3376 9.29788 22.2162 9.30186 22.1004 9.33291L13.2733 11.6983C13.1072 11.7428 12.9604 11.8409 12.8557 11.9773C12.751 12.1138 12.6942 12.2809 12.6942 12.4529V20.5401C12.6558 20.5304 12.6167 20.5194 12.5771 20.5108C11.8974 20.352 11.0927 20.3994 10.3114 20.6459C9.53018 20.8924 8.84365 21.3147 8.37832 21.8353C7.82168 22.4571 7.62021 23.1868 7.8252 23.8363C8.03018 24.4858 8.6126 24.9671 9.42529 25.1573Z" fill="white"/>
</svg>
