<svg width="42" height="50" viewBox="0 0 42 50" fill="none" xmlns="http://www.w3.org/2000/svg">
<path fill-rule="evenodd" clip-rule="evenodd" d="M14.8895 39.7409C15.0967 39.7409 15.2954 39.6586 15.4419 39.5121C15.5884 39.3656 15.6707 39.1669 15.6707 38.9597C15.6707 38.7525 15.5884 38.5538 15.4419 38.4072C15.2954 38.2607 15.0967 38.1784 14.8895 38.1784H14.8879C14.7853 38.1785 14.6837 38.1988 14.589 38.2382C14.4942 38.2775 14.4082 38.3351 14.3357 38.4078C14.1893 38.5544 14.1072 38.7532 14.1074 38.9604C14.1076 39.1676 14.1901 39.3662 14.3367 39.5126C14.4834 39.659 14.6822 39.7411 14.8894 39.7409H14.8895ZM2.3126 39.8594V2.45117C2.31288 2.21557 2.4066 1.9897 2.5732 1.8231C2.73979 1.6565 2.96567 1.56278 3.20127 1.5625H9.16455L9.82041 3.22959C9.87795 3.37561 9.9781 3.50094 10.1078 3.58926C10.2376 3.67758 10.3909 3.72481 10.5479 3.7248H19.2354C19.3923 3.72491 19.5456 3.67772 19.6752 3.58938C19.8049 3.50104 19.905 3.37565 19.9623 3.22959L20.6182 1.5625H26.5763C26.8119 1.56278 27.0377 1.6565 27.2043 1.8231C27.3709 1.9897 27.4647 2.21557 27.4649 2.45117V7.68945H19.7638C19.1139 7.69018 18.4909 7.94866 18.0313 8.40818C17.5718 8.86771 17.3133 9.49076 17.3126 10.1406V40.7479H3.20117C2.96556 40.7477 2.73967 40.654 2.57307 40.4874C2.40647 40.3208 2.31276 40.0949 2.3125 39.8593L2.3126 39.8594ZM10.8439 1.5625L11.0793 2.1623H18.7032L18.9396 1.5625H10.8439ZM25.2344 9.25205L25.4707 9.85186H33.0937L33.3299 9.25205H25.2344ZM38.8007 9.25205H35.009L34.3525 10.9191C34.2953 11.0652 34.1954 11.1906 34.0658 11.2789C33.9362 11.3673 33.7829 11.4145 33.6261 11.4144H24.9387C24.7817 11.4144 24.6283 11.3672 24.4986 11.2789C24.3688 11.1906 24.2687 11.0652 24.2112 10.9191L23.5548 9.25205H19.7637C19.528 9.25226 19.3021 9.34595 19.1355 9.51257C18.9689 9.67918 18.8752 9.9051 18.875 10.1407V43.2986H39.6893V10.1406C39.6893 9.90493 39.5956 9.6789 39.429 9.51224C39.2623 9.34558 39.0363 9.25195 38.8006 9.25195L38.8007 9.25205ZM39.6894 47.5486V44.8611H18.875V47.5488C18.8752 47.7845 18.9689 48.0104 19.1355 48.177C19.3021 48.3436 19.528 48.4373 19.7637 48.4375H38.8007C39.0364 48.4375 39.2624 48.3439 39.4291 48.1772C39.5957 48.0106 39.6894 47.7845 39.6894 47.5488V47.5486ZM0.750098 39.8594V2.45117C0.750925 1.80135 1.00942 1.17838 1.46891 0.718879C1.92839 0.259377 2.55135 0.000852732 3.20117 0L26.5763 0C27.2261 0.000801114 27.8491 0.259306 28.3086 0.718816C28.7681 1.17833 29.0266 1.80133 29.0274 2.45117V7.68945H38.8007C39.4505 7.69028 40.0735 7.94879 40.533 8.4083C40.9925 8.8678 41.251 9.49079 41.2519 10.1406V47.5488C41.251 48.1987 40.9925 48.8216 40.533 49.2811C40.0735 49.7406 39.4505 49.9991 38.8007 50H19.7637C19.1138 49.9993 18.4908 49.7408 18.0313 49.2812C17.5717 48.8217 17.3132 48.1987 17.3125 47.5488V42.3104H3.20117C2.5513 42.3097 1.92826 42.0512 1.46873 41.5917C1.0092 41.1322 0.750724 40.5091 0.75 39.8593L0.750098 39.8594ZM30.0644 46.6489C30.0645 46.8035 30.0187 46.9546 29.9329 47.0832C29.8472 47.2118 29.7252 47.3121 29.5824 47.3714C29.4397 47.4307 29.2825 47.4463 29.1309 47.4163C28.9793 47.3863 28.8399 47.312 28.7305 47.2028C28.6211 47.0937 28.5465 46.9545 28.5161 46.8029C28.4857 46.6514 28.501 46.4942 28.5599 46.3513C28.6189 46.2084 28.7189 46.0862 28.8473 46.0001C28.9756 45.914 29.1267 45.8679 29.2812 45.8677H29.2835C29.4906 45.8678 29.6892 45.9501 29.8357 46.0966C29.9821 46.2431 30.0644 46.4418 30.0644 46.6489Z" fill="#020842"/>
</svg>
