<svg width="45" height="45" viewBox="0 0 45 45" fill="none" xmlns="http://www.w3.org/2000/svg">
<path fill-rule="evenodd" clip-rule="evenodd" d="M16.7723 17.7207C16.5858 17.7207 16.4069 17.6466 16.2751 17.5147C16.1432 17.3829 16.0691 17.204 16.0691 17.0175C16.0691 16.831 16.1432 16.6522 16.2751 16.5203C16.4069 16.3885 16.5858 16.3144 16.7723 16.3144C17.3082 16.3159 17.8329 16.1603 18.2815 15.867C18.7301 15.5736 19.083 15.1554 19.2966 14.6638C19.5102 14.1722 19.5751 13.6288 19.4834 13.1007C19.3917 12.5726 19.1474 12.083 18.7806 11.6921C18.7164 11.6249 18.6663 11.5456 18.633 11.4588C18.5997 11.372 18.5839 11.2795 18.5866 11.1866C18.5893 11.0937 18.6104 11.0022 18.6487 10.9175C18.6869 10.8328 18.7416 10.7565 18.8095 10.6931C18.8775 10.6296 18.9573 10.5803 19.0444 10.5479C19.1315 10.5155 19.2242 10.5007 19.3171 10.5044C19.41 10.508 19.5012 10.5301 19.5855 10.5692C19.6698 10.6083 19.7455 10.6638 19.8083 10.7324C20.362 11.3235 20.7307 12.0637 20.8689 12.8617C21.0071 13.6598 20.9088 14.4809 20.586 15.2238C20.2633 15.9667 19.7302 16.5989 19.0526 17.0425C18.3749 17.4861 17.5822 17.7217 16.7723 17.7203V17.7207ZM1.40625 13.5627C1.40776 14.8115 1.90451 16.0086 2.78753 16.8916C3.67055 17.7746 4.86774 18.2713 6.11648 18.2727H16.7723C17.6898 18.274 18.5877 18.0068 19.3554 17.5042C20.123 17.0015 20.7268 16.2853 21.0924 15.4437C21.4581 14.6021 21.5695 13.672 21.4131 12.7678C21.2567 11.8637 20.8392 11.0251 20.2121 10.3552C20.0891 10.2235 20.0214 10.0496 20.0229 9.86936C20.0245 9.68914 20.0951 9.51638 20.2204 9.38678C20.627 8.96587 20.8584 8.40609 20.8676 7.82091C20.8768 7.23573 20.6632 6.66894 20.27 6.23546C19.8767 5.80197 19.3334 5.53423 18.7501 5.48651C18.1668 5.43879 17.5872 5.61466 17.1287 5.97847C17.0368 6.05141 16.928 6.10018 16.8124 6.12031C16.6967 6.14045 16.5779 6.13131 16.4667 6.09373C16.3555 6.05616 16.2555 5.99134 16.1757 5.9052C16.096 5.81905 16.0391 5.71431 16.0102 5.60054C15.729 4.487 15.0506 3.51459 14.1027 2.86623C13.1547 2.21787 12.0025 1.93824 10.8628 2.07995C9.72304 2.22167 8.67438 2.77495 7.91405 3.63572C7.15372 4.4965 6.73412 5.60543 6.73418 6.75392V8.15024C6.73434 8.33491 6.66179 8.51221 6.53223 8.64379C6.40267 8.77538 6.22651 8.85066 6.04186 8.85337C4.80749 8.87831 3.63176 9.38478 2.76566 10.2647C1.89956 11.1445 1.41171 12.3281 1.40625 13.5627ZM22.8882 13.5627C22.889 12.226 22.4489 10.9263 21.6361 9.86499C22.0866 9.19918 22.3088 8.40512 22.2693 7.60219C22.2298 6.79926 21.9307 6.03085 21.4171 5.41247C20.9034 4.7941 20.2028 4.35918 19.4208 4.17311C18.6387 3.98703 17.8174 4.05985 17.0802 4.38061C16.5325 3.07918 15.5514 2.00736 14.3033 1.34708C13.0552 0.686798 11.6171 0.478733 10.233 0.758201C8.84896 1.03767 7.60425 1.78745 6.71015 2.88029C5.81605 3.97312 5.32765 5.34167 5.32784 6.75366V7.49783C2.33332 7.88947 0 10.4768 0 13.5627C0.00172176 15.1844 0.646697 16.7391 1.79339 17.8857C2.94009 19.0324 4.49484 19.6773 6.11648 19.6789H16.7723C18.3939 19.6772 19.9485 19.0322 21.0951 17.8855C22.2418 16.7389 22.8866 15.1841 22.8883 13.5625L22.8882 13.5627ZM35.2201 25.2968V14.8434C35.2201 14.7223 35.1721 14.6062 35.0866 14.5205C35.0011 14.4349 34.8851 14.3866 34.7641 14.3863H24.6797C24.4931 14.3863 24.3142 14.3122 24.1823 14.1803C24.0504 14.0484 23.9763 13.8695 23.9763 13.683C23.9763 13.4964 24.0504 13.3175 24.1823 13.1856C24.3142 13.0537 24.4931 12.9796 24.6797 12.9796H34.7642C35.258 12.9803 35.7314 13.1769 36.0806 13.5262C36.4297 13.8755 36.6261 14.349 36.6266 14.8429V25.2968L37.85 24.0726C37.982 23.9407 38.1609 23.8665 38.3475 23.8665C38.5341 23.8665 38.7131 23.9407 38.845 24.0726C38.977 24.2045 39.0511 24.3835 39.0511 24.5701C39.0511 24.7567 38.977 24.9357 38.845 25.0676L36.4209 27.4916C36.2891 27.6233 36.1104 27.6973 35.924 27.6973C35.7377 27.6973 35.559 27.6233 35.4271 27.4916L33.0029 25.0676C32.871 24.9358 32.7968 24.757 32.7967 24.5705C32.7966 24.3841 32.8705 24.2052 33.0023 24.0732C33.1341 23.9413 33.3129 23.8671 33.4994 23.867C33.6859 23.8668 33.8648 23.9408 33.9967 24.0726L35.2201 25.2968ZM13.6166 34.1276C13.6171 34.6216 13.8135 35.0951 14.1627 35.4444C14.5119 35.7938 14.9855 35.9903 15.4794 35.9909H25.5636C25.7501 35.9909 25.9289 35.9168 26.0608 35.785C26.1926 35.6531 26.2667 35.4743 26.2667 35.2878C26.2667 35.1013 26.1926 34.9225 26.0608 34.7906C25.9289 34.6587 25.7501 34.5847 25.5636 34.5847H15.4796C15.3584 34.5845 15.2423 34.5363 15.1567 34.4506C15.0711 34.3649 15.0231 34.2488 15.0231 34.1276V22.8864L16.2465 24.1099C16.3784 24.2418 16.5572 24.3159 16.7437 24.3159C16.9302 24.3159 17.1091 24.2419 17.241 24.11C17.3729 23.9781 17.447 23.7993 17.4471 23.6128C17.4471 23.4262 17.373 23.2474 17.2412 23.1155L14.817 20.6914C14.6851 20.5598 14.5063 20.4858 14.3199 20.4858C14.1335 20.4858 13.9547 20.5598 13.8228 20.6914L11.3987 23.1155C11.2707 23.2481 11.1999 23.4258 11.2016 23.6101C11.2033 23.7945 11.2773 23.9708 11.4077 24.1011C11.5381 24.2314 11.7145 24.3053 11.8989 24.3068C12.0832 24.3083 12.2608 24.2374 12.3934 24.1092L13.6168 22.8858V34.127L13.6166 34.1276ZM38.2729 43.6598C38.2729 43.8463 38.1988 44.0251 38.0669 44.157C37.9351 44.2889 37.7562 44.3629 37.5697 44.3629H34.6941C34.5076 44.3629 34.3288 44.2889 34.1969 44.157C34.0651 44.0251 33.991 43.8463 33.991 43.6598C33.991 43.4733 34.0651 43.2945 34.1969 43.1626C34.3288 43.0308 34.5076 42.9567 34.6941 42.9567H37.5697C37.7562 42.9567 37.9351 43.0308 38.0669 43.1626C38.1988 43.2945 38.2729 43.4733 38.2729 43.6598ZM43.5938 40.4588C43.5934 40.4937 43.5794 40.527 43.5547 40.5517C43.5301 40.5763 43.4968 40.5903 43.4619 40.5907H28.8028C28.7678 40.5905 28.7343 40.5765 28.7095 40.5519C28.6847 40.5272 28.6705 40.4938 28.6701 40.4588V30.6239C28.6707 30.589 28.6849 30.5556 28.7097 30.531C28.7345 30.5064 28.7679 30.4924 28.8028 30.492H43.4619C43.4967 30.4926 43.5299 30.5067 43.5545 30.5313C43.5791 30.5559 43.5932 30.5891 43.5938 30.6239V40.4588ZM43.4619 29.0858H28.8028C28.3949 29.0864 28.0039 29.2486 27.7154 29.5368C27.4269 29.8251 27.2643 30.216 27.2634 30.6239V40.4588C27.2641 40.8668 27.4266 41.2578 27.7152 41.5461C28.0037 41.8344 28.3949 41.9966 28.8028 41.9969H43.4619C43.8697 41.9965 44.2607 41.8343 44.549 41.546C44.8374 41.2576 44.9996 40.8666 45 40.4588V30.6239C44.9994 30.2161 44.8371 29.8253 44.5488 29.537C44.2605 29.2487 43.8696 29.0864 43.4619 29.0858Z" fill="#FFBE16"/>
</svg>
