<svg width="45" height="39" viewBox="0 0 45 39" fill="none" xmlns="http://www.w3.org/2000/svg">
<path fill-rule="evenodd" clip-rule="evenodd" d="M23.3914 29.7847C23.2142 29.9623 22.9883 30.0834 22.7422 30.1325C22.4962 30.1817 22.2411 30.1568 22.0093 30.0609C21.7774 29.965 21.5792 29.8025 21.4398 29.5939C21.3003 29.3854 21.2259 29.1401 21.2259 28.8892C21.2259 28.6383 21.3003 28.3931 21.4398 28.1845C21.5792 27.9759 21.7774 27.8134 22.0093 27.7175C22.2411 27.6217 22.4962 27.5967 22.7422 27.6459C22.9883 27.695 23.2142 27.8161 23.3914 27.9937C23.6275 28.2319 23.76 28.5538 23.76 28.8892C23.76 29.2246 23.6275 29.5465 23.3914 29.7847ZM22.4959 26.2168C22.1445 26.2151 21.7964 26.2834 21.4718 26.4178C21.1472 26.5522 20.8526 26.75 20.6053 26.9996C20.2314 27.3731 19.9767 27.8492 19.8734 28.3676C19.7702 28.8859 19.8229 29.4233 20.0251 29.9116C20.2272 30.4 20.5697 30.8174 21.0091 31.1111C21.4486 31.4048 21.9653 31.5616 22.4938 31.5616C23.0224 31.5616 23.539 31.4048 23.9785 31.1111C24.4179 30.8174 24.7604 30.4 24.9625 29.9116C25.1647 29.4233 25.2175 28.8859 25.1142 28.3676C25.0109 27.8492 24.7562 27.3731 24.3823 26.9996C24.1355 26.7504 23.8417 26.5528 23.5178 26.4184C23.1939 26.2841 22.8465 26.2155 22.4959 26.2168ZM27.3386 23.9876C27.4043 24.0523 27.4565 24.1294 27.4923 24.2144C27.5282 24.2994 27.5469 24.3906 27.5475 24.4828C27.5481 24.575 27.5306 24.6665 27.4958 24.7519C27.4611 24.8373 27.4098 24.9151 27.3451 24.9807C27.2803 25.0464 27.2032 25.0986 27.1182 25.1344C27.0332 25.1703 26.942 25.189 26.8498 25.1896C26.7576 25.1902 26.6661 25.1726 26.5807 25.1379C26.4953 25.1032 26.4175 25.0519 26.3519 24.9871C25.3242 23.9787 23.9424 23.4129 22.5026 23.4109C21.0627 23.4088 19.6794 23.9708 18.6488 24.9763C18.5158 25.1072 18.3363 25.1798 18.1497 25.1783C17.9632 25.1768 17.7849 25.1013 17.654 24.9683C17.5232 24.8353 17.4505 24.6558 17.452 24.4692C17.4535 24.2827 17.5291 24.1043 17.6621 23.9735C18.949 22.7017 20.6868 21.9908 22.496 21.996H22.5043C24.3157 21.9939 26.054 22.7102 27.3383 23.9876L27.3386 23.9876ZM30.3278 21.0042C29.2999 19.9784 28.0799 19.1653 26.7375 18.6113C25.3951 18.0574 23.9567 17.7735 22.5045 17.7758H22.4962C21.0456 17.7716 19.6083 18.0534 18.2666 18.6051C16.9249 19.1568 15.7052 19.9675 14.677 20.9909C14.5464 21.1222 14.473 21.2997 14.4726 21.4849C14.4723 21.67 14.5451 21.8478 14.6752 21.9796C14.8053 22.1113 14.9822 22.1863 15.1673 22.1883C15.3525 22.1903 15.5309 22.119 15.6638 21.9901C19.4366 18.2559 25.5683 18.2609 29.3328 22.0021C29.4658 22.1323 29.6443 22.2055 29.8303 22.2061C29.9229 22.2064 30.0146 22.1882 30.1 22.1526C30.1854 22.117 30.2629 22.0647 30.3278 21.9988C30.4592 21.8666 30.533 21.6878 30.533 21.5015C30.533 21.3151 30.4592 21.1363 30.3278 21.0042ZM32.8151 19.2219C32.7227 19.2224 32.6312 19.2045 32.5458 19.1694C32.4604 19.1342 32.3828 19.0824 32.3176 19.0171C26.9072 13.6315 18.0969 13.6266 12.6828 19.0055C12.6173 19.0705 12.5396 19.1221 12.4541 19.1571C12.3687 19.1921 12.2772 19.21 12.1848 19.2096C12.0925 19.2093 12.0011 19.1908 11.9159 19.1552C11.8307 19.1195 11.7534 19.0674 11.6884 19.0019C11.6233 18.9364 11.5718 18.8587 11.5367 18.7732C11.5017 18.6878 11.4838 18.5963 11.4842 18.504C11.4845 18.4116 11.503 18.3202 11.5387 18.2351C11.5743 18.1499 11.6264 18.0725 11.6919 18.0075C13.1109 16.5905 14.7958 15.4677 16.6499 14.7037C18.504 13.9396 20.4908 13.5493 22.4961 13.5552H22.5044C24.5106 13.5514 26.4977 13.9439 28.3518 14.7101C30.2059 15.4763 31.8904 16.6011 33.3086 18.02C33.4075 18.1179 33.4751 18.243 33.5028 18.3794C33.5305 18.5157 33.5171 18.6572 33.4642 18.7859C33.4114 18.9147 33.3215 19.0248 33.2059 19.1023C33.0904 19.1799 32.9544 19.2214 32.8153 19.2215L32.8151 19.2219ZM38.9428 21.1592C39.9638 22.2578 40.6425 23.6303 40.8956 25.1086C41.1487 26.5869 40.9653 28.107 40.3678 29.4827C39.7704 30.8584 38.7848 32.03 37.5317 32.8542C36.2786 33.6784 34.8124 34.1193 33.3126 34.1231C33.1261 34.1231 32.9472 34.049 32.8154 33.9172C32.6835 33.7853 32.6094 33.6065 32.6094 33.42C32.6094 33.2335 32.6835 33.0547 32.8154 32.9228C32.9472 32.7909 33.1261 32.7168 33.3126 32.7168C34.5409 32.7189 35.743 32.3616 36.7708 31.6889C37.7985 31.0162 38.607 30.0575 39.0966 28.931C39.5863 27.8044 39.7356 26.5593 39.5263 25.3489C39.3169 24.1385 38.7581 23.0158 37.9186 22.1192C37.8545 22.0521 37.8043 21.9731 37.7709 21.8865C37.7376 21.8 37.7217 21.7077 37.7243 21.6149C37.7268 21.5222 37.7477 21.4309 37.7858 21.3463C37.8238 21.2617 37.8782 21.1855 37.9459 21.1221C38.0136 21.0587 38.0932 21.0093 38.18 20.9768C38.2669 20.9443 38.3594 20.9294 38.4521 20.9329C38.5448 20.9363 38.6358 20.9581 38.72 20.997C38.8043 21.0359 38.8799 21.0911 38.9427 21.1594L38.9428 21.1592ZM43.5945 26.4092C43.5933 23.8074 42.6015 21.3037 40.8208 19.4068C40.6972 19.2753 40.6291 19.1013 40.6306 18.9208C40.6321 18.7404 40.7032 18.5675 40.8291 18.4382C41.7818 17.4521 42.3239 16.1406 42.3455 14.7696C42.3671 13.3987 41.8667 12.0707 40.9456 11.055C40.0245 10.0394 38.7516 9.41189 37.3851 9.29983C36.0185 9.18778 34.6604 9.59953 33.5862 10.4516C33.4942 10.5246 33.3853 10.5735 33.2696 10.5937C33.1539 10.6138 33.035 10.6047 32.9237 10.5672C32.8124 10.5296 32.7123 10.4647 32.6325 10.3785C32.5527 10.2923 32.4957 10.1875 32.4668 10.0737C31.8533 7.64272 30.3726 5.51975 28.3033 4.10417C26.234 2.6886 23.7187 2.078 21.2306 2.38727C18.7426 2.69653 16.4534 3.90434 14.7936 5.78344C13.1338 7.66255 12.2179 10.0834 12.2182 12.5906V15.4263C12.2184 15.611 12.1458 15.7883 12.0163 15.9199C11.8867 16.0515 11.7105 16.1267 11.5259 16.1294C5.94554 16.2173 1.40572 20.8284 1.40572 26.4092C1.40912 29.1351 2.49345 31.7484 4.42091 33.6759C6.34838 35.6035 8.96162 36.6879 11.6875 36.6914H33.3125C36.0384 36.688 38.6517 35.6035 40.5791 33.676C42.5066 31.7484 43.591 29.1351 43.5944 26.4092H43.5945ZM41.7575 9.86915C40.6987 8.80993 39.3201 8.12939 37.8353 7.93293C36.3505 7.73648 34.8424 8.03508 33.5445 8.78248C32.805 6.66934 31.4809 4.80953 29.7261 3.4193C27.6733 1.78372 25.1247 0.896015 22.5 0.902378C16.0531 0.902378 10.8127 6.14567 10.8127 12.5909V14.7546C4.78872 15.2082 0 20.2973 0 26.4092C0 32.854 5.24478 38.0977 11.6875 38.0977H33.3125C39.7552 38.0977 45 32.854 45 26.4092C45 23.6709 44.034 21.0203 42.272 18.9242C44.3903 16.2569 44.2121 12.3235 41.7577 9.86915H41.7575Z" fill="#FFBE16"/>
</svg>
