<svg width="31" height="45" viewBox="0 0 31 45" fill="none" xmlns="http://www.w3.org/2000/svg">
<path fill-rule="evenodd" clip-rule="evenodd" d="M15.1837 33.7691L16.3614 32.9089L17.8598 31.8348L15.1861 29.9188L15.1837 33.7691ZM16.3665 37.0747L15.1837 36.2108L15.1862 40.0611L17.8599 38.1451L16.3665 37.0745V37.0747ZM11.5187 36.4462L13.5119 34.9898L11.5187 33.5337C11.3681 33.4237 11.2674 33.2584 11.2387 33.0741C11.21 32.8898 11.2557 32.7017 11.3657 32.5511C11.4757 32.4005 11.641 32.2998 11.8253 32.2711C12.0096 32.2424 12.1977 32.2881 12.3483 32.3981L13.7775 33.4422V31.8397L13.7828 28.5503C13.7831 28.4212 13.8189 28.2946 13.8863 28.1845C13.9537 28.0743 14.0502 27.9849 14.1651 27.926C14.28 27.8671 14.4089 27.8409 14.5377 27.8504C14.6665 27.8599 14.7901 27.9047 14.8952 27.9799L19.4764 31.2634C19.5671 31.3285 19.641 31.4143 19.692 31.5136C19.743 31.6129 19.7696 31.723 19.7696 31.8347C19.7696 31.9463 19.743 32.0564 19.692 32.1558C19.641 32.2551 19.5671 32.3409 19.4764 32.406L17.1858 34.0486L15.8964 34.9902L17.1912 35.9358L19.4764 37.5739C19.5671 37.639 19.641 37.7248 19.692 37.8242C19.743 37.9235 19.7696 38.0336 19.7696 38.1452C19.7696 38.2569 19.743 38.367 19.692 38.4663C19.641 38.5656 19.5671 38.6514 19.4764 38.7165L14.8952 42C14.7901 42.0752 14.6665 42.12 14.5377 42.1295C14.4089 42.139 14.28 42.1128 14.1651 42.0539C14.0502 41.995 13.9537 41.9055 13.8863 41.7954C13.8188 41.6852 13.783 41.5587 13.7828 41.4295L13.7775 38.141V36.5374L12.3484 37.5818C12.2739 37.6363 12.1893 37.6756 12.0996 37.6974C12.0099 37.7192 11.9167 37.7231 11.8255 37.7089C11.7342 37.6947 11.6467 37.6626 11.5678 37.6146C11.489 37.5665 11.4203 37.5034 11.3659 37.4289C11.3114 37.3543 11.2721 37.2697 11.2503 37.18C11.2286 37.0903 11.2246 36.9971 11.2389 36.9059C11.2675 36.7216 11.3683 36.5563 11.5188 36.4463L11.5187 36.4462ZM1.42188 41.1489V28.831C1.42267 28.1828 1.68056 27.5613 2.13899 27.103C2.59741 26.6446 3.21892 26.3868 3.86717 26.3862H27.1335C27.7817 26.3868 28.4032 26.6446 28.8615 27.103C29.3199 27.5613 29.5777 28.1828 29.5783 28.831V41.1489C29.5776 41.7971 29.3198 42.4185 28.8615 42.8768C28.4031 43.3351 27.7817 43.5929 27.1335 43.5936H3.86717C3.21899 43.5929 2.59753 43.3352 2.13911 42.8769C1.6807 42.4187 1.42276 41.7973 1.42188 41.1492V41.1489ZM7.33938 24.9799H23.6607V24.0864H7.33938V24.9799ZM10.1308 22.6802H20.8694V21.4157H10.1308V22.6802ZM7.35555 20.0093H23.6451C24.043 20.009 24.4246 19.8507 24.7059 19.5694C24.9873 19.288 25.1456 18.9065 25.1459 18.5085V9.8847C25.1456 9.48677 24.9873 9.10525 24.7059 8.82387C24.4246 8.54249 24.043 8.38425 23.6451 8.38388H7.35555C6.9576 8.38432 6.57607 8.54257 6.29464 8.82392C6.01321 9.10527 5.85485 9.48675 5.85429 9.8847V18.5085C5.85485 18.9065 6.01321 19.288 6.29464 19.5693C6.57607 19.8507 6.9576 20.0089 7.35555 20.0093ZM3.59436 17.8054H4.44795V10.5878H3.59436C3.39401 10.588 3.2019 10.6676 3.06019 10.8092C2.91848 10.9508 2.83875 11.1429 2.8385 11.3432V17.0501C2.83878 17.2504 2.91852 17.4424 3.06022 17.584C3.20193 17.7257 3.39402 17.8053 3.59436 17.8054ZM27.4059 10.5878H26.5523V17.8054H27.4059C27.6062 17.8052 27.7982 17.7256 27.9399 17.584C28.0816 17.4424 28.1614 17.2504 28.1617 17.0501V11.3432C28.1614 11.1429 28.0816 10.9509 27.9399 10.8093C27.7983 10.6677 27.6062 10.588 27.4059 10.5878ZM15.5001 3.47018C15.7043 3.47023 15.9039 3.40973 16.0737 3.29633C16.2434 3.18293 16.3758 3.02173 16.4539 2.83311C16.5321 2.64449 16.5526 2.43693 16.5127 2.23668C16.4729 2.03643 16.3746 1.85249 16.2302 1.70812C16.0859 1.56375 15.9019 1.46544 15.7017 1.42562C15.5014 1.3858 15.2939 1.40626 15.1052 1.48442C14.9166 1.56258 14.7554 1.69492 14.642 1.8647C14.5286 2.03448 14.4681 2.23408 14.4682 2.43825C14.4686 2.7118 14.5775 2.97402 14.7709 3.16744C14.9643 3.36087 15.2266 3.46973 15.5001 3.47018ZM0.015625 41.1489V28.831C0.0168812 27.8099 0.423085 26.8311 1.14513 26.1091C1.86717 25.3871 2.8461 24.9811 3.86717 24.9799H5.93348V23.3833C5.93348 23.1968 6.00756 23.018 6.13942 22.8861C6.27128 22.7542 6.45012 22.6802 6.6366 22.6802H8.72488V21.4157H7.35555C6.70703 21.4149 6.07735 21.1976 5.56629 20.7984C5.05523 20.3991 4.69203 19.8408 4.53426 19.2117H3.59383C3.0207 19.211 2.47124 18.9831 2.06594 18.5778C1.66063 18.1726 1.43256 17.6232 1.43172 17.0501V11.3432C1.43253 10.7701 1.6606 10.2207 2.06591 9.81545C2.47122 9.41023 3.02069 9.18227 3.59383 9.18157H4.53426C4.69208 8.55257 5.05529 7.99421 5.56634 7.59497C6.07739 7.19574 6.70704 6.97845 7.35555 6.97754H14.797V4.77227C14.2368 4.60355 13.7559 4.239 13.4422 3.74517C13.1284 3.25134 13.0027 2.66115 13.088 2.08233C13.1732 1.5035 13.4638 0.974643 13.9066 0.59227C14.3495 0.209898 14.915 -0.000488281 15.5001 -0.000488281C16.0852 -0.000488281 16.6507 0.209898 17.0936 0.59227C17.5364 0.974643 17.827 1.5035 17.9122 2.08233C17.9975 2.66115 17.8718 3.25134 17.5581 3.74517C17.2443 4.239 16.7634 4.60355 16.2032 4.77227V6.97745H23.6451C24.2934 6.97847 24.9229 7.19582 25.4337 7.59506C25.9446 7.9943 26.3075 8.5526 26.4652 9.18148H27.4056C27.9787 9.18218 28.5282 9.41014 28.9335 9.81537C29.3388 10.2206 29.5669 10.77 29.5677 11.3432V17.05C29.567 17.6232 29.339 18.1727 28.9336 18.578C28.5283 18.9833 27.9788 19.2114 27.4056 19.2121H26.4652C26.3077 19.8411 25.9448 20.3995 25.4339 20.7987C24.923 21.198 24.2935 21.4152 23.6451 21.416H22.2758V22.6805H24.3641C24.5505 22.6807 24.7292 22.7548 24.8611 22.8866C24.9929 23.0185 25.067 23.1972 25.0672 23.3836V24.9803H27.1335C28.1545 24.9815 29.1333 25.3876 29.8553 26.1096C30.5772 26.8315 30.9834 27.8104 30.9846 28.8314V41.1492C30.9831 42.1701 30.5769 43.1488 29.855 43.8706C29.1331 44.5924 28.1544 44.9985 27.1335 44.9998H3.86717C2.84612 44.9986 1.86724 44.5925 1.14521 43.8705C0.423177 43.1486 0.0169508 42.1698 0.015625 41.1487V41.1489ZM22.1394 11.9327C22.1395 12.1988 22.0606 12.4589 21.9128 12.6802C21.7651 12.9015 21.555 13.074 21.3092 13.1758C21.0634 13.2777 20.7929 13.3044 20.5319 13.2525C20.2709 13.2006 20.0312 13.0725 19.843 12.8843C19.6549 12.6962 19.5267 12.4565 19.4749 12.1955C19.423 11.9345 19.4496 11.664 19.5515 11.4182C19.6534 11.1724 19.8259 10.9623 20.0471 10.8145C20.2684 10.6667 20.5286 10.5879 20.7946 10.588C21.1511 10.5886 21.4928 10.7304 21.7449 10.9825C21.997 11.2345 22.1388 11.5763 22.1394 11.9327ZM23.5456 11.9327C23.5457 12.4769 23.3844 13.009 23.0821 13.4615C22.7798 13.914 22.3501 14.2668 21.8473 14.4751C21.3446 14.6834 20.7913 14.7379 20.2575 14.6317C19.7238 14.5256 19.2335 14.2635 18.8487 13.8787C18.4638 13.4939 18.2018 13.0036 18.0956 12.4698C17.9895 11.9361 18.044 11.3828 18.2523 10.88C18.4606 10.3773 18.8133 9.94756 19.2659 9.64526C19.7184 9.34297 20.2504 9.18166 20.7946 9.18175C21.524 9.18266 22.2232 9.47278 22.7389 9.98849C23.2546 10.5042 23.5447 11.2034 23.5456 11.9327ZM11.5512 11.9327C11.5513 12.1988 11.4725 12.4589 11.3247 12.6802C11.177 12.9014 10.9669 13.0739 10.7211 13.1758C10.4754 13.2777 10.2049 13.3044 9.94392 13.2525C9.68296 13.2007 9.44323 13.0726 9.25506 12.8846C9.06688 12.6965 8.93871 12.4568 8.88675 12.1959C8.83479 11.9349 8.86138 11.6644 8.96315 11.4186C9.06493 11.1728 9.23731 10.9627 9.45851 10.8148C9.67971 10.667 9.93978 10.588 10.2058 10.588C10.5624 10.5884 10.9042 10.7302 11.1564 10.9823C11.4086 11.2344 11.5506 11.5762 11.5512 11.9327ZM10.2058 14.6844C9.66168 14.6844 9.12975 14.523 8.67731 14.2206C8.22487 13.9183 7.87224 13.4886 7.66401 12.9858C7.45578 12.4831 7.40131 11.9299 7.50747 11.3962C7.61363 10.8625 7.87567 10.3723 8.26044 9.98747C8.64521 9.60269 9.13544 9.34064 9.66914 9.23446C10.2028 9.12828 10.756 9.18274 11.2588 9.39095C11.7615 9.59916 12.1913 9.95178 12.4936 10.4042C12.796 10.8566 12.9574 11.3886 12.9574 11.9327C12.9567 12.6623 12.6666 13.3617 12.1507 13.8776C11.6348 14.3935 10.9354 14.6836 10.2058 14.6844ZM19.1619 18.5085C19.1619 18.695 19.0878 18.8738 18.956 19.0057C18.8241 19.1376 18.6453 19.2116 18.4588 19.2116H12.5416C12.3551 19.2116 12.1763 19.1376 12.0444 19.0057C11.9126 18.8738 11.8385 18.695 11.8385 18.5085C11.8385 18.322 11.9126 18.1432 12.0444 18.0113C12.1763 17.8795 12.3551 17.8054 12.5416 17.8054H18.4586C18.6451 17.8054 18.8239 17.8795 18.9558 18.0113C19.0876 18.1432 19.1617 18.322 19.1617 18.5085H19.1619Z" fill="#FFBE16"/>
</svg>
