<svg width="101" height="60" viewBox="0 0 101 60" fill="none" xmlns="http://www.w3.org/2000/svg">
<path d="M50.6476 0.304688C43.0656 0.304688 36.8984 6.82065 36.8984 14.8318C36.8984 22.8411 43.0656 29.357 50.6476 29.357C58.2296 29.357 64.3968 22.8411 64.3968 14.8318C64.3968 6.82065 58.2296 0.304688 50.6476 0.304688ZM50.6476 23.478C46.3069 23.478 42.7775 19.5998 42.7775 14.8318C42.7775 10.0639 46.3069 6.18375 50.6476 6.18375C54.9883 6.18375 58.5177 10.0639 58.5177 14.8318C58.5177 19.5998 54.9883 23.478 50.6476 23.478ZM79.9233 2.25849H79.8293C73.2526 2.31337 67.9497 7.99842 68.0065 14.9298C68.0633 21.8279 73.4074 27.4032 79.9429 27.4032H80.037C83.2607 27.3758 86.2708 26.0177 88.5107 23.5779C90.6977 21.193 91.8872 18.0516 91.8598 14.7319C91.803 7.8338 86.4589 2.25849 79.9233 2.25849ZM84.1778 19.6017C83.053 20.8285 81.5656 21.5105 79.988 21.5242H79.9429C76.6291 21.5242 73.9149 18.5552 73.8856 14.8808C73.8542 11.1907 76.5429 8.16499 79.8783 8.13755H79.9233C83.2372 8.13755 85.9513 11.1084 85.9807 14.7809C85.9964 16.6073 85.3556 18.3201 84.1778 19.6017Z" fill="#020842"/>
<path d="M82.972 28.8723H76.897C72.2231 28.8723 67.9667 30.6948 64.8018 33.6657C61.7212 31.8432 58.133 30.7967 54.3018 30.7967H46.9941C43.0885 30.7967 39.4317 31.8843 36.3138 33.7715C33.1352 30.7379 28.8337 28.8723 24.103 28.8723H18.028C8.27072 28.8723 0.332031 36.811 0.332031 46.5683V54.0602H26.3057V59.8981H74.9902V54.0602H100.668V46.5683C100.668 36.811 92.7293 28.8723 82.972 28.8723ZM26.5703 48.1811H6.21109V46.5683C6.21109 40.0523 11.512 34.7514 18.028 34.7514H24.103C27.0034 34.7514 29.6627 35.8018 31.7223 37.5439C29.063 40.4521 27.2228 44.1206 26.5703 48.1811ZM69.1111 54.019H32.1848V51.4851C32.182 48.2482 33.2446 45.1004 35.2086 42.5274C36.4618 40.8806 38.045 39.5136 39.8569 38.514C41.9754 37.3421 44.4093 36.6758 46.9941 36.6758H54.3018C56.7965 36.6758 59.1461 37.295 61.2097 38.3885C63.0195 39.3477 64.612 40.6699 65.8875 42.2726C67.2698 44.0028 68.2444 46.0224 68.7388 48.1811C68.9818 49.2432 69.1111 50.3505 69.1111 51.4851V54.019ZM94.7889 48.1811H74.7256C74.0613 44.056 72.1722 40.3345 69.4462 37.4028C71.4804 35.7449 74.075 34.7514 76.897 34.7514H82.972C89.488 34.7514 94.7889 40.0523 94.7889 46.5683V48.1811ZM21.0557 2.25781H20.9616C14.3849 2.31268 9.08203 7.99773 9.13886 14.9291C9.19569 21.8272 14.5398 27.4025 21.0753 27.4025H21.1694C24.3931 27.3751 27.4031 26.017 29.6431 23.5772C31.8301 21.1923 33.0196 18.0509 32.9922 14.7312C32.9353 7.83312 27.5913 2.25781 21.0557 2.25781ZM25.3102 19.601C24.1853 20.8278 22.6979 21.5098 21.1204 21.5235H21.0753C17.7615 21.5235 15.0473 18.5546 15.0179 14.8802C14.9866 11.1901 17.6753 8.16431 21.0106 8.13687H21.0557C24.3695 8.13687 27.0837 11.1078 27.1131 14.7802C27.1288 16.6066 26.488 18.3194 25.3102 19.601Z" fill="#020842"/>
</svg>
